<svg
  xmlns="http://www.w3.org/2000/svg"
  x="0px"
  y="0px"
  width="144"
  height="144"
  viewBox="0 0 172 172"
  style=" fill:#000000;"
>
  <g
    fill="none"
    fill-rule="nonzero"
    stroke="none"
    stroke-width="1"
    stroke-linecap="butt"
    stroke-linejoin="miter"
    stroke-miterlimit="10"
    stroke-dasharray=""
    stroke-dashoffset="0"
    font-family="none"
    font-weight="none"
    font-size="none"
    text-anchor="none"
    style="mix-blend-mode: normal"
  >
    <path d="M0,172v-172h172v172z" fill="none"></path>
    <g>
      <rect
        x="7"
        y="7"
        transform="scale(2.6875,2.6875)"
        width="50"
        height="50"
        rx="6"
        ry="6"
        fill="#58b5e8"
      ></rect>
      <path
        d="M52.40625,51.0625c-5.19493,0 -9.40625,4.21132 -9.40625,9.40625c0,5.19493 4.21132,9.40625 9.40625,9.40625c5.19493,0 9.40625,-4.21132 9.40625,-9.40625c0,-5.19493 -4.21132,-9.40625 -9.40625,-9.40625zM106.855,75.25c-5.93937,0 -13.4375,4.78375 -16.63562,7.49813v-3.57438c0,-1.48427 -1.20323,-2.6875 -2.6875,-2.6875h-13.67937c-1.48427,0 -2.6875,1.20323 -2.6875,2.6875v56.4375c0,1.48427 1.20323,2.6875 2.6875,2.6875h14.5125c1.48427,0 2.6875,-1.20323 2.6875,-2.6875v-28.43375c0,-8.4925 4.78375,-14.35125 10.45437,-14.35125c5.67063,0 9.05687,6.42312 9.05687,14.80812v28.03062c0,1.48427 1.20323,2.6875 2.6875,2.6875h14.5125c1.48427,0 2.6875,-1.20323 2.6875,-2.6875v-31.47062c-0.37625,-14.32438 -3.14437,-28.94438 -23.59625,-28.94438zM43,77.9375h18.8125v59.125h-18.8125z"
        fill="#faeed1"
      ></path>
      <path
        d="M29.5625,18.8125h112.875c5.93706,0 10.75,4.81294 10.75,10.75v0c0,4.4528 -3.6097,8.0625 -8.0625,8.0625h-118.25c-4.4528,0 -8.0625,-3.6097 -8.0625,-8.0625v0c0,-5.93706 4.81294,-10.75 10.75,-10.75z"
        fill="#65c5ef"
      ></path>
      <path
        d="M61.8125,75.25h-18.8125c-1.48427,0 -2.6875,1.20323 -2.6875,2.6875v59.125c0,1.48427 1.20323,2.6875 2.6875,2.6875h18.8125c1.48427,0 2.6875,-1.20323 2.6875,-2.6875v-59.125c0,-1.48427 -1.20323,-2.6875 -2.6875,-2.6875zM59.125,134.375h-13.4375v-53.75h13.4375zM107.1775,73.745c-5.3137,-0.07404 -10.48584,1.71339 -14.62,5.0525v-0.86c0,-1.48427 -1.20323,-2.6875 -2.6875,-2.6875h-17.3075c-1.48427,0 -2.6875,1.20323 -2.6875,2.6875v59.125c0,1.48427 1.20323,2.6875 2.6875,2.6875h18.00625c1.48427,0 2.6875,-1.20323 2.6875,-2.6875v-29.85812c0,-8.89563 2.20375,-12.22812 8.0625,-12.22812c5.85875,0 6.69188,3.92375 6.69188,12.685v29.40125c0,1.48427 1.20323,2.6875 2.6875,2.6875h18.03312c1.48427,0 2.6875,-1.20323 2.6875,-2.6875v-33.0025c0.05375,-14.99625 -2.82188,-30.315 -24.24125,-30.315zM125.99,134.375h-12.55063v-26.71375c0,-6.31563 0,-18.06 -12.06687,-18.06c-13.4375,0 -13.4375,13.24938 -13.4375,17.60312v27.17063h-12.685v-53.75h11.90563v5.375c0.11345,1.52889 1.39639,2.7059 2.92938,2.6875c0.9906,-0.00264 1.89942,-0.55 2.365,-1.42437c3.03392,-5.18401 8.67119,-8.28141 14.67375,-8.0625c15.77562,0 18.8125,9.54062 18.8125,24.96687zM52.40625,48.375c-6.67919,0 -12.09375,5.41456 -12.09375,12.09375c0,6.67919 5.41456,12.09375 12.09375,12.09375c6.67919,0 12.09375,-5.41456 12.09375,-12.09375c0,-6.67919 -5.41456,-12.09375 -12.09375,-12.09375zM52.40625,68.07437c-4.20047,0 -7.60562,-3.40515 -7.60562,-7.60562c0,-4.20047 3.40515,-7.60562 7.60562,-7.60562c4.20047,0 7.60562,3.40515 7.60562,7.60562c0,4.20047 -3.40515,7.60562 -7.60562,7.60562z"
        fill="#8d6c9f"
      ></path>
      <path
        d="M137.0625,16.125h-102.125c-10.38986,0 -18.8125,8.42264 -18.8125,18.8125v102.125c0,10.38986 8.42264,18.8125 18.8125,18.8125h102.125c10.38986,0 18.8125,-8.42264 18.8125,-18.8125v-102.125c0,-10.38986 -8.42264,-18.8125 -18.8125,-18.8125zM150.5,137.0625c0,7.42133 -6.01617,13.4375 -13.4375,13.4375h-102.125c-7.42133,0 -13.4375,-6.01617 -13.4375,-13.4375v-102.125c0,-7.42133 6.01617,-13.4375 13.4375,-13.4375h102.125c7.42133,0 13.4375,6.01617 13.4375,13.4375z"
        fill="#8d6c9f"
      ></path>
      <path
        d="M45.6875,43c1.48427,0 2.6875,-1.20323 2.6875,-2.6875v-5.375c0,-1.48427 -1.20323,-2.6875 -2.6875,-2.6875c-1.48427,0 -2.6875,1.20323 -2.6875,2.6875v5.375c0,1.48427 1.20323,2.6875 2.6875,2.6875zM32.25,32.25c-1.48427,0 -2.6875,1.20323 -2.6875,2.6875v5.375c0,1.48427 1.20323,2.6875 2.6875,2.6875c1.48427,0 2.6875,-1.20323 2.6875,-2.6875v-5.375c0,-1.48427 -1.20323,-2.6875 -2.6875,-2.6875zM86,43c1.48427,0 2.6875,-1.20323 2.6875,-2.6875v-5.375c0,-1.48427 -1.20323,-2.6875 -2.6875,-2.6875c-1.48427,0 -2.6875,1.20323 -2.6875,2.6875v5.375c0,1.48427 1.20323,2.6875 2.6875,2.6875zM99.4375,43c1.48427,0 2.6875,-1.20323 2.6875,-2.6875v-5.375c0,-1.48427 -1.20323,-2.6875 -2.6875,-2.6875c-1.48427,0 -2.6875,1.20323 -2.6875,2.6875v5.375c0,1.48427 1.20323,2.6875 2.6875,2.6875zM112.875,43c1.48427,0 2.6875,-1.20323 2.6875,-2.6875v-5.375c0,-1.48427 -1.20323,-2.6875 -2.6875,-2.6875c-1.48427,0 -2.6875,1.20323 -2.6875,2.6875v5.375c0,1.48427 1.20323,2.6875 2.6875,2.6875zM126.3125,43c1.48427,0 2.6875,-1.20323 2.6875,-2.6875v-5.375c0,-1.48427 -1.20323,-2.6875 -2.6875,-2.6875c-1.48427,0 -2.6875,1.20323 -2.6875,2.6875v5.375c0,1.48427 1.20323,2.6875 2.6875,2.6875zM139.75,32.25c-1.48427,0 -2.6875,1.20323 -2.6875,2.6875v5.375c0,1.48427 1.20323,2.6875 2.6875,2.6875c1.48427,0 2.6875,-1.20323 2.6875,-2.6875v-5.375c0,-1.48427 -1.20323,-2.6875 -2.6875,-2.6875zM59.125,43c1.48427,0 2.6875,-1.20323 2.6875,-2.6875v-5.375c0,-1.48427 -1.20323,-2.6875 -2.6875,-2.6875c-1.48427,0 -2.6875,1.20323 -2.6875,2.6875v5.375c0,1.48427 1.20323,2.6875 2.6875,2.6875zM72.5625,43c1.48427,0 2.6875,-1.20323 2.6875,-2.6875v-5.375c0,-1.48427 -1.20323,-2.6875 -2.6875,-2.6875c-1.48427,0 -2.6875,1.20323 -2.6875,2.6875v5.375c0,1.48427 1.20323,2.6875 2.6875,2.6875z"
        fill="#8d6c9f"
      ></path>
    </g>
  </g>
</svg>
