<svg
  xmlns="http://www.w3.org/2000/svg"
  x="0px"
  y="0px"
  width="80"
  height="80"
  viewBox="0 0 172 172"
  style=" fill:#000000;"
>
  <g
    fill="none"
    fill-rule="nonzero"
    stroke="none"
    stroke-width="1"
    stroke-linecap="butt"
    stroke-linejoin="miter"
    stroke-miterlimit="10"
    stroke-dasharray=""
    stroke-dashoffset="0"
    font-family="none"
    font-weight="none"
    font-size="none"
    text-anchor="none"
    style="mix-blend-mode: normal"
  >
    <path d="M0,172v-172h172v172z" fill="none"></path>
    <g fill="#faeed1">
      <path
        d="M143.33333,129h-114.66667c-7.91917,0 -14.33333,-6.41417 -14.33333,-14.33333v-71.66667c0,-7.91917 6.41417,-14.33333 14.33333,-14.33333h114.66667c7.91917,0 14.33333,6.41417 14.33333,14.33333v71.66667c0,7.91917 -6.41417,14.33333 -14.33333,14.33333z"
        opacity="0.35"
      ></path>
      <path d="M103.91667,129c-1.26133,0 -34.572,0 -35.83333,0c-5.934,0 -10.75,4.816 -10.75,10.75c0,5.934 4.816,10.75 10.75,10.75c1.26133,0 34.572,0 35.83333,0c5.934,0 10.75,-4.816 10.75,-10.75c0,-5.934 -4.816,-10.75 -10.75,-10.75z"></path>
      <path d="M171.86383,81.19833c-0.46583,-1.30433 -1.64833,-2.22167 -3.0315,-2.35067c-0.40133,-0.0215 -8.213,-0.602 -15.8885,3.89867c-4.09217,-18.43983 -18.2105,-24.80383 -18.90567,-25.09767c-1.36167,-0.58767 -2.91683,-0.27233 -3.97033,0.774c-1.03917,1.04633 -1.32583,2.63017 -0.72383,3.9775c0.043,0.10033 3.49733,8.22017 3.8055,19.9735c-7.4605,-4.09933 -14.835,-3.55467 -15.23633,-3.526c-1.376,0.129 -2.5585,1.04633 -3.0315,2.35067c-0.473,1.30433 -0.1505,2.76633 0.83133,3.74817c0.12183,0.1075 7.4605,8.09117 13.287,22.5535v0c-2.20733,0 -4.29283,1.01767 -5.64733,2.75917c-1.3545,1.7415 -1.84183,4.00617 -1.30433,6.149l7.16667,28.66667c0.80267,3.18917 3.66217,5.42517 6.95167,5.42517h14.33333c3.2895,0 6.149,-2.236 6.95167,-5.42517l7.16667,-28.66667c0.5375,-2.14283 0.05733,-4.4075 -1.30433,-6.149c-1.36167,-1.7415 -3.44,-2.75917 -5.64733,-2.75917v0c5.83367,-14.46233 13.2655,-22.446 13.36583,-22.54633c0.98183,-0.989 1.3115,-2.451 0.83133,-3.75533z"></path>
    </g>
  </g>
</svg>
