<svg
  xmlns="http://www.w3.org/2000/svg"
  x="0px"
  y="0px"
  width="80"
  height="80"
  viewBox="0 0 172 172"
  style=" fill:#000000;"
>
  <g
    fill="none"
    fill-rule="nonzero"
    stroke="none"
    stroke-width="1"
    stroke-linecap="butt"
    stroke-linejoin="miter"
    stroke-miterlimit="10"
    stroke-dasharray=""
    stroke-dashoffset="0"
    font-family="none"
    font-weight="none"
    font-size="none"
    text-anchor="none"
    style="mix-blend-mode: normal"
  >
    <path d="M0,172v-172h172v172z" fill="none"></path>
    <g fill="#faeed1">
      <path d="M10.32,24.08c-5.68406,0 -10.32,4.63594 -10.32,10.32v113.52c0,5.68406 4.63594,10.32 10.32,10.32h20.64c1.89469,0 3.44,-1.53187 3.44,-3.44v-5.16c-2.06937,-1.72 -3.44,-4.12531 -3.44,-6.88c0,-4.81062 3.78938,-8.6 8.6,-8.6c4.81063,0 8.6,3.78938 8.6,8.6c0,2.75469 -1.37062,5.16 -3.44,6.88v5.16c0,1.90813 1.53188,3.44 3.44,3.44h75.68c1.90813,0 3.44,-1.53187 3.44,-3.44v-5.16c-2.06937,-1.72 -3.44,-4.12531 -3.44,-6.88c0,-4.81062 3.78938,-8.6 8.6,-8.6c4.81063,0 8.6,3.78938 8.6,8.6c0,2.75469 -1.37062,5.16 -3.44,6.88v5.16c0,1.90813 1.53188,3.44 3.44,3.44h20.64c5.68406,0 10.32,-4.63594 10.32,-10.32v-113.52c0,-5.68406 -4.63594,-10.32 -10.32,-10.32zM56.76,48.16c3.78938,0 6.92031,1.04813 7.955,3.1175c11.00531,1.37063 7.8475,16.15188 6.1275,20.9625c0.68531,0.34938 1.74688,1.37063 1.3975,3.44c-0.68531,3.78938 -2.08281,4.8375 -3.1175,4.8375c-0.34937,3.44 -2.39187,7.59219 -3.7625,8.2775c0,2.75469 -0.34937,4.44781 0,7.2025c2.75469,7.91469 23.04531,5.4825 24.08,20.9625h-65.36c1.03469,-15.48 21.285,-13.04781 24.725,-20.9625v-7.2025c-1.37062,-0.68531 -3.73562,-4.8375 -4.085,-8.2775c-1.03469,0 -2.76812,-1.04812 -3.1175,-4.8375c-0.34937,-2.06937 0.71219,-3.09062 1.3975,-3.44c-3.44,-12.72531 -1.37062,-23.73062 13.76,-24.08zM129.645,58.48c12.72531,0 21.715,8.30438 21.715,19.995c0,10.32 -5.87219,16.4475 -13.4375,16.4475c-3.44,0 -5.77812,-1.72 -6.1275,-5.16c-2.40531,3.44 -5.56312,5.16 -9.3525,5.16c-4.47469,0 -7.8475,-3.41312 -7.8475,-8.9225c0,-8.6 6.45,-16.125 16.77,-16.125c3.09063,0 6.53063,0.68531 8.6,1.72l-2.0425,12.685c-0.68531,4.12531 -0.34937,5.805 1.72,5.805c3.09063,0 6.88,-3.69531 6.88,-11.61c0,-8.94937 -5.87219,-15.91 -16.8775,-15.91c-11.00531,0 -20.21,8.30438 -20.21,21.715c0,11.69063 7.49813,18.275 18.1675,18.275c3.78938,0 7.56531,-0.77937 10.32,-2.15l0.7525,3.87c-4.47469,1.72 -8.30437,2.365 -13.115,2.365c-12.04,0 -22.36,-8.30437 -22.36,-21.715c0,-14.10937 10.61563,-26.445 26.445,-26.445zM130.075,75.3575c-4.81062,0 -8.2775,4.48813 -8.2775,9.9975c0,2.75469 1.37063,4.085 3.44,4.085c2.75469,0 5.44219,-3.07719 6.1275,-7.2025l0.7525,-6.5575c-0.68531,0 -1.35719,-0.3225 -2.0425,-0.3225z"></path>
    </g>
  </g>
</svg> 