<svg xmlns="http://www.w3.org/2000/svg" x="0px" y="0px" width="80" height="80" viewBox="0 0 172 172"
style=" fill:#000000;">
<g fill="none" fill-rule="nonzero" stroke="none" stroke-width="1" stroke-linecap="butt"
    stroke-linejoin="miter" stroke-miterlimit="10" stroke-dasharray="" stroke-dashoffset="0"
    font-family="none" font-weight="none" font-size="none" text-anchor="none"
    style="mix-blend-mode: normal">
    <path d="M0,172v-172h172v172z" fill="none"></path>
    <g fill="#faeed1">
        <path
            d="M129,150.5h-86c-11.87517,0 -21.5,-9.62483 -21.5,-21.5v-66.18417c0,-7.81167 4.2355,-14.99983 11.05817,-18.791l43,-23.8865c6.493,-3.60483 14.39067,-3.60483 20.88367,0l43,23.8865c6.82267,3.79117 11.05817,10.9865 11.05817,18.791v66.18417c0,11.87517 -9.62483,21.5 -21.5,21.5z"
            opacity="0.35"></path>
        <path
            d="M107.5,150.5h-43v-43c0,-7.91917 6.41417,-14.33333 14.33333,-14.33333h14.33333c7.91917,0 14.33333,6.41417 14.33333,14.33333z">
        </path>
        <path
            d="M146.9095,66.14833c-1.77017,0 -3.55467,-0.43717 -5.21017,-1.3545l-49.01283,-27.23333c-4.18533,-2.322 -9.17333,-2.322 -13.35867,0l-49.01283,27.23333c-5.19583,2.881 -11.73183,1.01767 -14.62,-4.17817c-2.881,-5.18867 -1.01767,-11.73183 4.17817,-14.62l49.01283,-27.23333c10.72133,-5.96267 23.521,-5.9555 34.24233,0l49.01283,27.23333c5.18867,2.881 7.05917,9.42417 4.17817,14.62c-1.97083,3.54033 -5.633,5.53267 -9.40983,5.53267z">
        </path>
    </g>
</g>
</svg>