<svg
  xmlns="http://www.w3.org/2000/svg"
  x="0px"
  y="0px"
  width="144"
  height="144"
  viewBox="0 0 172 172"
  style=" fill:#000000;"
>
  <g
    fill="none"
    fill-rule="nonzero"
    stroke="none"
    stroke-width="1"
    stroke-linecap="butt"
    stroke-linejoin="miter"
    stroke-miterlimit="10"
    stroke-dasharray=""
    stroke-dashoffset="0"
    font-family="none"
    font-weight="none"
    font-size="none"
    text-anchor="none"
    style="mix-blend-mode: normal"
  >
    <path d="M0,172v-172h172v172z" fill="none"></path>
    <g>
      <path
        d="M18.8125,137.0625v-102.125c0,-8.89563 7.22937,-16.125 16.125,-16.125h102.125c8.89562,0 16.125,7.22937 16.125,16.125v102.125c0,8.89562 -7.22938,16.125 -16.125,16.125h-102.125c-8.89563,0 -16.125,-7.22938 -16.125,-16.125z"
        fill="#faeed1"
      ></path>
      <rect
        x="7"
        y="36"
        transform="scale(2.6875,2.6875)"
        width="50"
        height="16"
        fill="#ace3ff"
      ></rect>
      <rect
        x="7"
        y="22"
        transform="scale(2.6875,2.6875)"
        width="50"
        height="14"
        fill="#85cbf8"
      ></rect>
      <path
        d="M29.5625,153.1875h112.875c5.93669,0 10.75,-4.81331 10.75,-10.75v0c0,-4.45319 -3.60931,-8.0625 -8.0625,-8.0625h-118.25c-4.45319,0 -8.0625,3.60931 -8.0625,8.0625v0c0,5.93669 4.81331,10.75 10.75,10.75z"
        fill="#e3f2ff"
      ></path>
      <path
        d="M137.0625,155.875h-102.125c-10.37106,0 -18.8125,-8.44144 -18.8125,-18.8125v-102.125c0,-10.37106 8.44144,-18.8125 18.8125,-18.8125h102.125c10.37106,0 18.8125,8.44144 18.8125,18.8125v102.125c0,10.37106 -8.44144,18.8125 -18.8125,18.8125zM34.9375,21.5c-7.40944,0 -13.4375,6.02806 -13.4375,13.4375v102.125c0,7.40944 6.02806,13.4375 13.4375,13.4375h102.125c7.40944,0 13.4375,-6.02806 13.4375,-13.4375v-102.125c0,-7.40944 -6.02806,-13.4375 -13.4375,-13.4375z"
        fill="#8d6c9f"
      ></path>
      <path
        d="M126.3125,129c-1.4835,0 -2.6875,1.204 -2.6875,2.6875v5.375c0,1.4835 1.204,2.6875 2.6875,2.6875c1.4835,0 2.6875,-1.204 2.6875,-2.6875v-5.375c0,-1.4835 -1.204,-2.6875 -2.6875,-2.6875zM139.75,139.75c1.4835,0 2.6875,-1.204 2.6875,-2.6875v-5.375c0,-1.4835 -1.204,-2.6875 -2.6875,-2.6875c-1.4835,0 -2.6875,1.204 -2.6875,2.6875v5.375c0,1.4835 1.204,2.6875 2.6875,2.6875zM86,129c-1.4835,0 -2.6875,1.204 -2.6875,2.6875v5.375c0,1.4835 1.204,2.6875 2.6875,2.6875c1.4835,0 2.6875,-1.204 2.6875,-2.6875v-5.375c0,-1.4835 -1.204,-2.6875 -2.6875,-2.6875zM72.5625,129c-1.4835,0 -2.6875,1.204 -2.6875,2.6875v5.375c0,1.4835 1.204,2.6875 2.6875,2.6875c1.4835,0 2.6875,-1.204 2.6875,-2.6875v-5.375c0,-1.4835 -1.204,-2.6875 -2.6875,-2.6875zM59.125,129c-1.4835,0 -2.6875,1.204 -2.6875,2.6875v5.375c0,1.4835 1.204,2.6875 2.6875,2.6875c1.4835,0 2.6875,-1.204 2.6875,-2.6875v-5.375c0,-1.4835 -1.204,-2.6875 -2.6875,-2.6875zM45.6875,129c-1.4835,0 -2.6875,1.204 -2.6875,2.6875v5.375c0,1.4835 1.204,2.6875 2.6875,2.6875c1.4835,0 2.6875,-1.204 2.6875,-2.6875v-5.375c0,-1.4835 -1.204,-2.6875 -2.6875,-2.6875zM32.25,139.75c1.4835,0 2.6875,-1.204 2.6875,-2.6875v-5.375c0,-1.4835 -1.204,-2.6875 -2.6875,-2.6875c-1.4835,0 -2.6875,1.204 -2.6875,2.6875v5.375c0,1.4835 1.204,2.6875 2.6875,2.6875zM112.875,129c-1.4835,0 -2.6875,1.204 -2.6875,2.6875v5.375c0,1.4835 1.204,2.6875 2.6875,2.6875c1.4835,0 2.6875,-1.204 2.6875,-2.6875v-5.375c0,-1.4835 -1.204,-2.6875 -2.6875,-2.6875zM99.4375,129c-1.4835,0 -2.6875,1.204 -2.6875,2.6875v5.375c0,1.4835 1.204,2.6875 2.6875,2.6875c1.4835,0 2.6875,-1.204 2.6875,-2.6875v-5.375c0,-1.4835 -1.204,-2.6875 -2.6875,-2.6875z"
        fill="#8d6c9f"
      ></path>
      <path
        d="M129,107.5h-86c-2.96969,0 -5.375,-2.40531 -5.375,-5.375v-48.375c0,-2.96969 2.40531,-5.375 5.375,-5.375h86c2.96969,0 5.375,2.40531 5.375,5.375v48.375c0,2.96969 -2.40531,5.375 -5.375,5.375z"
        fill="#fff8ee"
      ></path>
      <path
        d="M129,110.1875h-86c-4.44512,0 -8.0625,-3.61738 -8.0625,-8.0625v-48.375c0,-4.44512 3.61738,-8.0625 8.0625,-8.0625h86c4.44512,0 8.0625,3.61738 8.0625,8.0625v48.375c0,4.44513 -3.61737,8.0625 -8.0625,8.0625zM43,51.0625c-1.4835,0 -2.6875,1.204 -2.6875,2.6875v48.375c0,1.4835 1.204,2.6875 2.6875,2.6875h86c1.4835,0 2.6875,-1.204 2.6875,-2.6875v-48.375c0,-1.4835 -1.204,-2.6875 -2.6875,-2.6875z"
        fill="#8d6c9f"
      ></path>
      <path
        d="M86,93.86631c-4.128,0 -8.256,-1.57219 -11.40037,-4.71656l-36.18719,-36.18719c-1.05081,-1.05081 -1.05081,-2.74931 0,-3.80013c1.05081,-1.05081 2.74931,-1.05081 3.80013,0l36.18719,36.18719c4.18981,4.18981 11.01337,4.18981 15.2005,0l36.18719,-36.18719c1.05081,-1.05081 2.74931,-1.05081 3.80013,0c1.05081,1.05081 1.05081,2.74931 0,3.80013l-36.18719,36.18719c-3.14437,3.14437 -7.27237,4.71656 -11.40037,4.71656z"
        fill="#8d6c9f"
      ></path>
      <path
        d="M40.3125,107.5c-0.688,0 -1.376,-0.26337 -1.90006,-0.78744c-1.05081,-1.05081 -1.05081,-2.74931 0,-3.80013l26.875,-26.875c1.05081,-1.05081 2.74931,-1.05081 3.80013,0c1.05081,1.05081 1.05081,2.74931 0,3.80013l-26.875,26.875c-0.52406,0.52406 -1.21206,0.78744 -1.90006,0.78744z"
        fill="#8d6c9f"
      ></path>
      <path
        d="M131.6875,107.5c-0.688,0 -1.376,-0.26337 -1.90006,-0.78744l-26.875,-26.875c-1.05081,-1.05081 -1.05081,-2.74931 0,-3.80013c1.05081,-1.05081 2.74931,-1.05081 3.80013,0l26.875,26.875c1.05081,1.05081 1.05081,2.74931 0,3.80013c-0.52406,0.52406 -1.21206,0.78744 -1.90006,0.78744z"
        fill="#8d6c9f"
      ></path>
    </g>
  </g>
</svg>
