<svg xmlns="http://www.w3.org/2000/svg" x="0px" y="0px" width="80" height="80" viewBox="0 0 172 172"
style=" fill:#680a0a;">
<g fill="none" fill-rule="nonzero" stroke="none" stroke-width="1" stroke-linecap="butt"
    stroke-linejoin="miter" stroke-miterlimit="10" stroke-dasharray="" stroke-dashoffset="0"
    font-family="none" font-weight="none" font-size="none" text-anchor="none"
    style="mix-blend-mode: normal">
    <path d="M0,172v-172h172v172z" fill="none"></path>
    <g fill="#faeed1">
        <path
            d="M34.04167,14.33333c-8.89025,0 -16.125,7.23475 -16.125,16.125v95.04932c3.00283,-2.27542 6.70083,-3.67432 10.75,-3.67432h8.95833c4.94142,0 8.95833,-4.01692 8.95833,-8.95833v-77.04167v-12.54167c0,-4.94142 -4.01692,-8.95833 -8.95833,-8.95833zM53.75,35.83333v77.04167c0,8.90458 -7.22042,16.125 -16.125,16.125h-8.95833c-5.90892,0 -10.743,4.83409 -10.743,10.743v0.05599c0,5.8695 4.78952,10.68326 10.65902,10.69401c1.90275,0.00358 3.95012,0.007 6.06787,0.007h103.30778c8.90458,0 16.125,-7.22042 16.125,-16.125v-82.41667c0,-8.90458 -7.22042,-16.125 -16.125,-16.125zM120.04167,64.5h14.33333c2.967,0 5.375,2.408 5.375,5.375v14.33333c0,2.967 -2.408,5.375 -5.375,5.375c-2.967,0 -5.375,-2.408 -5.375,-5.375v-1.35775l-15.90804,15.90804c-1.04992,1.0535 -2.42429,1.57471 -3.80029,1.57471c-1.376,0 -2.75038,-0.52479 -3.80029,-1.57471l-14.11637,-14.11637l-14.11637,14.11637c-2.09983,2.09983 -5.50075,2.09983 -7.60059,0c-2.09983,-2.09983 -2.09983,-5.50075 0,-7.60059l17.91667,-17.91667c2.09983,-2.09983 5.50075,-2.09983 7.60059,0l14.11637,14.11637l12.10775,-12.10775h-1.35775c-2.967,0 -5.375,-2.408 -5.375,-5.375c0,-2.967 2.408,-5.375 5.375,-5.375zM73.45833,111.08333h60.91667c2.967,0 5.375,2.408 5.375,5.375c0,2.967 -2.408,5.375 -5.375,5.375h-60.91667c-2.967,0 -5.375,-2.408 -5.375,-5.375c0,-2.967 2.408,-5.375 5.375,-5.375z">
        </path>
    </g>
</g>
</svg>